<?xml version="1.0" encoding="utf-8"?>
<!-- Generator: Adobe Illustrator 22.1.0, SVG Export Plug-In . SVG Version: 6.00 Build 0)  -->
<svg version="1.1" id="Layer_1" xmlns="http://www.w3.org/2000/svg" xmlns:xlink="http://www.w3.org/1999/xlink" x="0px" y="0px"
	 viewBox="0 0 79.3 20.8" style="enable-background:new 0 0 79.3 20.8;" xml:space="preserve">
<style type="text/css">
	.st0{fill:#555656;}
</style>
<g>
	<path class="st0" d="M29.6,1.7v2.6c0,0.6,0,0.8,0.1,1c0.1,0.3,0.4,0.4,0.7,0.4c0.4,0,0.7-0.2,0.8-0.5c0.1-0.2,0.1-0.4,0.1-0.9V1.7
		h0.5v2.5c0,0.7,0,0.9-0.2,1.2C31.4,5.8,31,6,30.4,6s-1-0.3-1.2-0.8c-0.1-0.3-0.1-0.5-0.1-1.1V1.7H29.6"/>
	<polyline class="st0" points="35.5,6 35,6 33.1,2.5 33.1,6 32.6,6 32.6,1.7 33.1,1.7 35,5.2 35,1.7 35.5,1.7 35.5,6 	"/>
	<rect x="36.4" y="1.7" class="st0" width="0.5" height="4.3"/>
	<polyline class="st0" points="39,5.1 40.2,1.7 40.6,1.7 39.1,6 38.8,6 37.5,1.7 37.9,1.7 39,5.1 	"/>
	<polyline class="st0" points="43,3.6 43,4 41.8,4 41.8,5.6 43.2,5.6 43.2,6 41.3,6 41.3,1.7 43,1.7 43,2.1 41.8,2.1 41.8,3.6 
		43,3.6 	"/>
	<path class="st0" d="M43.9,6h0.5V4h0.4l1,2h0.5l-1.1-2c0.2-0.1,0.3-0.2,0.4-0.3c0.2-0.2,0.3-0.6,0.3-0.9c0-0.4-0.2-0.8-0.4-0.9
		s-0.3-0.1-0.7-0.1h-0.9V6 M44.4,3.6V2.1h0.5c0.4,0,0.5,0.2,0.5,0.7c0,0.3-0.1,0.6-0.2,0.7c-0.1,0.1-0.2,0.1-0.5,0.1H44.4z"/>
	<path class="st0" d="M48.3,2.6C48.1,2.2,48,2,47.7,2s-0.5,0.3-0.5,0.7c0,0.3,0.1,0.5,0.6,0.9c0.4,0.3,0.5,0.4,0.6,0.5
		c0.2,0.2,0.2,0.4,0.2,0.8c0,0.7-0.5,1.3-1.1,1.3c-0.5,0-0.8-0.2-1-0.6L46.8,5c0.1,0.4,0.4,0.6,0.7,0.6c0.4,0,0.6-0.3,0.6-0.8
		c0-0.2-0.1-0.4-0.2-0.5c-0.1-0.1-0.1-0.1-0.4-0.4c-0.6-0.4-0.8-0.7-0.8-1.2c0-0.6,0.4-1.1,1-1.1c0.4,0,0.7,0.2,0.9,0.6L48.3,2.6"/>
	<rect x="49.4" y="1.7" class="st0" width="0.5" height="4.3"/>
	<polyline class="st0" points="52.2,6 51.7,6 51.7,2.1 50.7,2.1 50.7,1.7 53.2,1.7 53.2,2.1 52.2,2.1 52.2,6 	"/>
	<polyline class="st0" points="56.5,1.7 55.3,4.1 55.3,6 54.9,6 54.9,4.1 53.7,1.7 54.2,1.7 55.1,3.6 56.1,1.7 56.5,1.7 	"/>
	<path class="st0" d="M64.7,1.6c-1.1,0-1.7,0.8-1.7,2.2c0,0.8,0.2,1.3,0.5,1.7C63.8,5.8,64.2,6,64.7,6s0.9-0.2,1.2-0.5
		c0.3-0.4,0.5-1,0.5-1.7C66.4,2.4,65.8,1.6,64.7,1.6 M64.7,2c0.7,0,1.2,0.7,1.2,1.8s-0.4,1.8-1.2,1.8c-0.7,0-1.2-0.7-1.2-1.9
		C63.5,2.7,64,2,64.7,2z"/>
	<polyline class="st0" points="68.9,3.6 68.9,4 67.7,4 67.7,6 67.3,6 67.3,1.7 69,1.7 69,2.1 67.7,2.1 67.7,3.6 68.9,3.6 	"/>
	<path class="st0" d="M15.4,1.3h-5v0.6L10.7,2c1.5,0.3,1.8,0.3,1.8,2.2c0,0,0,10.2,0,11C12,14.4,4.2,1.3,4.2,1.3H0v0.6h0.4
		C2,2.1,2.2,2.1,2.2,4v13.7c0,1.7-0.3,1.7-1.6,1.9H0v0.1v0.5h5.8v-0.6l-0.6-0.1c-1.4-0.2-1.6-0.2-1.6-1.9c0,0,0-10.8,0-11.6
		c0.4,0.7,9,14.2,9,14.2h1.2V4c0-1.6,0.2-1.7,1.5-2.1l0.3-0.1V1.3H15.4"/>
	<path class="st0" d="M29.5,19.4c-1.8,0-2.3-1-2.3-4.4c0,0,0-4.3,0-4.4c0.8-0.9,1.4-1.2,2.1-1.2c1.9,0,3.3,2.3,3.3,5.4
		C32.6,17.6,31.4,19.4,29.5,19.4 M30.3,7.5C29,7.5,28,8,27.1,9.1c0-0.7,0-9.1,0-9.1L27,0.1l-3.5,1.3V2h0.2c0.3-0.1,0.4-0.1,0.5-0.1
		c0.5,0,0.7,0.2,0.7,1.5v11.9c0,2.5-0.1,3.4-0.7,5v0.1l0.7,0.4c0,0,1.4-1.6,1.6-1.9c0.8,1.3,1.9,1.9,3.3,1.9c2.9,0,5.1-3,5.1-6.9
		C34.8,10.1,33,7.5,30.3,7.5z"/>
	<path class="st0" d="M75,17.4c-0.7,0.9-1.6,1.4-2.3,1.4c-1.1,0-1.9-0.9-1.9-2.2c0-2.3,2.3-3.1,4.2-3.7l0,0C75,13.2,75,17.3,75,17.4
		 M68.4,17.3c0,0.8,0.3,1.6,0.8,2.2c-0.2,0-0.3,0-0.3,0c-0.1-0.1-4.1-7.4-4.1-7.5c0.7-1,2.7-2.5,4.1-2.7c0.4,0,0.7-0.1,0.8,0
		c0.3,0.4,0.9,0.4,0.9,0.4c0.1,0,0.9,0.1,1.6-1c0,0,0-0.2,0.4-0.2c1.7,0,2.4,2,2.4,3.3C72.5,12.6,68.4,13.9,68.4,17.3z M78.5,18.2
		l-0.1,0.1c-0.4,0.5-0.5,0.5-0.7,0.5c-0.3,0-0.5-0.5-0.5-1.2v-5.8c0-1.6-0.3-2.3-1.1-2.9c-2.2-1.8-4.5-1.8-5.3-1.8
		c-2.3-0.1-7.8,3.1-9.3,6.8c0-1.4,0-13.9,0-13.9l-0.2,0.1L58,1.4V2h0.2c0.2,0,0.3-0.1,0.5-0.1c0.4,0,0.6,0.2,0.6,1.3
		c0,0,0,16.1,0,16.3c-0.2,0-1.3,0.2-1.3,0.2v0.7h4.8v-0.7c0,0-1.1-0.2-1.3-0.2c0-2.8,0.1-3.5,1.7-5.7c0.2,0.3,2.9,5.4,3,5.7
		c-0.3,0-1.2,0.2-1.2,0.2v0.8h5.3l0,0c0.4,0.2,0.9,0.3,1.4,0.3c1.4,0,2.7-0.8,3.4-2.1c0.1,1.3,0.8,2.1,1.8,2.1
		c0.6,0,1.4-0.6,2.2-1.7l0.1-0.1L78.5,18.2z"/>
	<path class="st0" d="M19.5,8.7c1.2,0,2,0.9,2,2.3c0,0.7-0.2,1.1-1.6,1.5c0,0-2.7,0.7-3.4,0.8C16.6,10.5,17.7,8.7,19.5,8.7
		 M23.5,16.7l-0.1,0.1c-1,1.4-1.8,2-3,2c-1.9,0-3.4-1.7-3.8-4.1c0.2-0.1,7.6-2,7.6-2v-0.1c-0.4-3.2-2.1-5-4.7-5
		c-2.9,0-5.2,3.2-5.2,7.1c0,3.6,2.3,6.1,5.4,6.1c2,0,3.5-1,4.6-3.3v-0.1L23.5,16.7z"/>
	<path class="st0" d="M46.9,17.5c-0.7,0.9-1.6,1.4-2.3,1.4c-1.1,0-1.9-0.9-1.9-2.2c0-2.3,2.3-3.1,4.2-3.7l0,0
		C46.9,13.3,46.9,17.4,46.9,17.5 M55.7,12.8c-2.7-1.2-3-1.4-3-2.5c0-0.8,0.8-1.6,1.8-1.6c0,0,0.8,0,0.9,0.3c0,0.1,0.4,1.2,1.7,1
		c0.6-0.1,0.8-0.6,0.8-1c0-0.8-0.9-1.5-2.3-1.5c-2.8,0-4.9,1.6-4.9,3.8c0,2,1.7,2.8,3.3,3.5c1.4,0.6,2.7,1.2,2.7,2.7
		c0,1.1-1,2-2.2,2s-1.6-0.6-1.7-1.5c-0.1-0.9-0.8-1.1-1.4-1.1c-0.7,0-1.2,0.5-1.3,1.3c0,0.2,0,0.2,0.1,0.4c-0.3,0.3-0.4,0.4-0.6,0.4
		c-0.3,0-0.5-0.5-0.5-1.2v-5.3l0,0v-0.4c0-1.6-0.3-2.3-1.1-2.9C46.7,8,44,7,41.8,7.5c-1.2,0.3-3.2,1.8-4.2,4.3c-0.1-2-0.3-2.8-1-4.1
		l-0.1-0.1L34,8.8V9h0.5h0.1c0.7,0,1.1,0.9,1.1,3.1c0,0,0,7.2,0,7.4c-0.2,0-1.3,0.2-1.3,0.2v0.6h4.9v-0.6c0,0-1.2-0.2-1.4-0.2
		c0-0.2,0-2.9,0-2.9c0.3-6,1.7-6.7,2.3-7c0.5-0.3,1.2-0.4,1.2-0.3c0.3,0.4,0.9,0.4,0.9,0.4c0.2,0,1,0.1,1.6-1c0,0,0-0.2,0.4-0.2
		c1.7,0,2.4,2,2.4,3.3l0,0l0,0c-2.5,0.8-6.6,2.2-6.6,5.5c0,2,1.4,3.4,3.4,3.4c1.4,0,2.7-0.8,3.4-2.1c0.1,1.3,0.8,2.1,1.8,2.1
		c0.5,0,1.1-0.4,1.8-1.2c0.7,0.8,2,1.2,3.6,1.2c2.5,0,4.5-1.7,4.5-3.9C58.8,15.1,57.6,13.6,55.7,12.8z"/>
</g>
</svg>
